<?xml version="1.0" encoding="UTF-8"?>
<svg id="Calque_1" data-name="Calque 1" xmlns="http://www.w3.org/2000/svg" viewBox="0 0 180 180">
  <defs>
    <style>
      .cls-1 {
        fill: #d62839;
        stroke-width: 0px;
      }

      .cls-2 {
        stroke-linejoin: round;
      }

      .cls-2, .cls-3 {
        fill: none;
        stroke: #d62839;
        stroke-linecap: round;
        stroke-width: 4px;
      }

      .cls-3 {
        stroke-miterlimit: 10;
      }
    </style>
  </defs>
  <g>
    <line class="cls-2" x1="78.56" y1="78.84" x2="52.79" y2="53.07"/>
    <polygon class="cls-1" points="73.73 50.87 73.59 54.87 53.88 54.15 54.6 73.86 50.6 74 49.73 50 73.73 50.87"/>
  </g>
  <g>
    <line class="cls-2" x1="100" y1="100.28" x2="127.36" y2="127.63"/>
    <polygon class="cls-1" points="106.42 129.83 106.56 125.83 126.27 126.55 125.55 106.84 129.55 106.7 130.42 130.7 106.42 129.83"/>
  </g>
  <g>
    <line class="cls-2" x1="100.99" y1="78.54" x2="126.44" y2="53.08"/>
    <polygon class="cls-1" points="128.64 74.02 124.64 73.88 125.36 54.17 105.65 54.89 105.51 50.89 129.51 50.02 128.64 74.02"/>
  </g>
  <g>
    <line class="cls-2" x1="78.93" y1="100.59" x2="52.2" y2="127.32"/>
    <polygon class="cls-1" points="50.01 106.38 54.01 106.52 53.29 126.23 73 125.51 73.14 129.51 49.13 130.38 50.01 106.38"/>
  </g>
  <path class="cls-3" d="m129.78,158.63c4.35,1.57,13.14-1.95,20.02-8.83s10.46-14.96,8.8-19.29"/>
  <path class="cls-3" d="m129.76,149.91c3.02,1.09,9.12-1.36,13.9-6.13s7.26-10.39,6.11-13.4"/>
  <path class="cls-3" d="m127.2,141.12c2.07.75,6.25-.93,9.52-4.2,3.3-3.3,4.97-7.12,4.18-9.18"/>
  <path class="cls-3" d="m50.35,22.05c-4.35-1.57-13.14,1.95-20.02,8.83-6.93,6.93-10.46,14.96-8.8,19.29"/>
  <path class="cls-3" d="m50.37,30.77c-3.02-1.09-9.12,1.36-13.9,6.13s-7.26,10.39-6.11,13.4"/>
  <path class="cls-3" d="m52.93,39.56c-2.07-.75-6.25.93-9.52,4.2s-4.97,7.12-4.18,9.18"/>
  <path class="cls-3" d="m155.88,52.22c1.57-4.35-1.95-13.14-8.83-20.02s-14.96-10.46-19.29-8.8"/>
  <path class="cls-3" d="m147.16,52.25c1.09-3.02-1.36-9.12-6.13-13.9s-10.39-7.26-13.4-6.11"/>
  <path class="cls-3" d="m138.37,54.81c.75-2.07-.93-6.25-4.2-9.52-3.3-3.3-7.12-4.97-9.18-4.18"/>
  <path class="cls-3" d="m21.42,129.52c-1.57,4.35,1.95,13.14,8.83,20.02s14.96,10.46,19.29,8.8"/>
  <path class="cls-3" d="m30.14,129.5c-1.09,3.02,1.36,9.12,6.13,13.9,4.81,4.81,10.39,7.26,13.4,6.11"/>
  <path class="cls-3" d="m38.93,126.94c-.75,2.07.93,6.25,4.2,9.52s7.12,4.97,9.18,4.18"/>
</svg>