<?xml version="1.0" encoding="UTF-8"?>
<svg id="Calque_1" data-name="Calque 1" xmlns="http://www.w3.org/2000/svg" viewBox="0 0 180 180">
  <defs>
    <style>
      .cls-1, .cls-2, .cls-3 {
        fill: #1d1d1b;
        stroke: #1d1d1b;
      }

      .cls-1, .cls-2, .cls-3, .cls-4, .cls-5, .cls-6, .cls-7 {
        stroke-linecap: round;
      }

      .cls-1, .cls-2, .cls-5, .cls-6, .cls-7 {
        stroke-miterlimit: 10;
      }

      .cls-1, .cls-3, .cls-4, .cls-5 {
        stroke-width: 2px;
      }

      .cls-3, .cls-4 {
        stroke-linejoin: round;
      }

      .cls-4, .cls-5 {
        fill: #d62839;
        stroke: #d62839;
      }

      .cls-6 {
        fill: #fff;
      }

      .cls-6, .cls-7 {
        stroke: #fff;
        stroke-width: 3px;
      }

      .cls-7 {
        fill: none;
      }
    </style>
  </defs>
  <rect class="cls-3" x="16.08" y="16.11" width="49.31" height="49.31"/>
  <rect class="cls-5" x="16.08" y="65.42" width="49.31" height="49.31"/>
  <rect class="cls-3" x="16.08" y="114.73" width="49.31" height="49.31"/>
  <rect class="cls-4" x="65.39" y="16.11" width="49.31" height="49.31"/>
  <rect class="cls-3" x="65.39" y="65.42" width="49.31" height="49.31"/>
  <rect class="cls-5" x="65.39" y="114.73" width="49.31" height="49.31"/>
  <rect class="cls-3" x="114.69" y="16.11" width="49.31" height="49.31"/>
  <rect class="cls-5" x="114.69" y="65.42" width="49.31" height="49.31"/>
  <rect class="cls-1" x="114.69" y="114.73" width="49.31" height="49.31"/>
  <ellipse class="cls-7" cx="89.82" cy="140.01" rx="21.27" ry="12.14"/>
  <ellipse class="cls-6" cx="89.57" cy="140.06" rx="11.62" ry="11.94"/>
  <circle class="cls-2" cx="89.48" cy="140.06" r="5.32"/>
  <ellipse class="cls-7" cx="139.35" cy="90.07" rx="21.27" ry="12.14"/>
  <ellipse class="cls-6" cx="139.09" cy="90.13" rx="11.62" ry="11.94"/>
  <circle class="cls-2" cx="139" cy="90.13" r="5.32"/>
  <ellipse class="cls-7" cx="40.73" cy="90.07" rx="21.27" ry="12.14"/>
  <ellipse class="cls-6" cx="40.48" cy="90.13" rx="11.62" ry="11.94"/>
  <circle class="cls-2" cx="40.39" cy="90.13" r="5.32"/>
  <ellipse class="cls-7" cx="89.82" cy="40.77" rx="21.27" ry="12.14"/>
  <ellipse class="cls-6" cx="89.57" cy="40.82" rx="11.62" ry="11.94"/>
  <circle class="cls-2" cx="89.48" cy="40.82" r="5.32"/>
</svg>