<?xml version="1.0" encoding="UTF-8"?>
<svg id="Calque_1" data-name="Calque 1" xmlns="http://www.w3.org/2000/svg" viewBox="0 0 180 180">
  <defs>
    <style>
      .cls-1, .cls-2, .cls-3 {
        fill: #1d1d1b;
      }

      .cls-1, .cls-2, .cls-3, .cls-4, .cls-5, .cls-6 {
        stroke: #1d1d1b;
        stroke-linecap: round;
      }

      .cls-1, .cls-2, .cls-5, .cls-6 {
        stroke-miterlimit: 10;
      }

      .cls-1, .cls-3, .cls-4, .cls-5 {
        stroke-width: 2px;
      }

      .cls-3, .cls-4 {
        stroke-linejoin: round;
      }

      .cls-4, .cls-5, .cls-6 {
        fill: #fff;
      }

      .cls-6 {
        stroke-width: 3px;
      }
    </style>
  </defs>
  <rect class="cls-3" x="24.47" y="24" width="43.83" height="43.83"/>
  <rect class="cls-5" x="24.47" y="67.83" width="43.83" height="43.83"/>
  <rect class="cls-3" x="24.47" y="111.66" width="43.83" height="43.83"/>
  <rect class="cls-4" x="68.3" y="24" width="43.83" height="43.83"/>
  <rect class="cls-3" x="68.3" y="67.83" width="43.83" height="43.83"/>
  <rect class="cls-5" x="68.3" y="111.66" width="43.83" height="43.83"/>
  <rect class="cls-3" x="112.14" y="24" width="43.83" height="43.83"/>
  <rect class="cls-5" x="112.14" y="67.83" width="43.83" height="43.83"/>
  <rect class="cls-1" x="112.14" y="111.66" width="43.83" height="43.83"/>
  <ellipse class="cls-6" cx="90.03" cy="134.14" rx="18.91" ry="10.79"/>
  <ellipse class="cls-6" cx="89.8" cy="134.18" rx="10.33" ry="10.62"/>
  <circle class="cls-2" cx="89.72" cy="134.18" r="4.73"/>
  <ellipse class="cls-6" cx="134.05" cy="89.75" rx="18.91" ry="10.79"/>
  <ellipse class="cls-6" cx="133.83" cy="89.79" rx="10.33" ry="10.62"/>
  <circle class="cls-2" cx="133.74" cy="89.79" r="4.73"/>
  <ellipse class="cls-6" cx="46.39" cy="89.75" rx="18.91" ry="10.79"/>
  <ellipse class="cls-6" cx="46.16" cy="89.79" rx="10.33" ry="10.62"/>
  <circle class="cls-2" cx="46.08" cy="89.79" r="4.73"/>
  <ellipse class="cls-6" cx="90.03" cy="45.92" rx="18.91" ry="10.79"/>
  <ellipse class="cls-6" cx="89.8" cy="45.96" rx="10.33" ry="10.62"/>
  <circle class="cls-2" cx="89.72" cy="45.96" r="4.73"/>
</svg>