<?xml version="1.0" encoding="UTF-8"?>
<svg id="Calque_1" data-name="Calque 1" xmlns="http://www.w3.org/2000/svg" viewBox="0 0 180 180">
  <defs>
    <style>
      .cls-1 {
        stroke-width: 22px;
      }

      .cls-1, .cls-2 {
        fill: none;
      }

      .cls-1, .cls-2, .cls-3 {
        stroke: #f19143;
        stroke-linecap: round;
        stroke-linejoin: round;
      }

      .cls-2 {
        stroke-width: 10px;
      }

      .cls-3 {
        fill: #f19143;
        stroke-width: 3px;
      }
    </style>
  </defs>
  <line class="cls-1" x1="131.27" y1="32.19" x2="48.09" y2="32.19"/>
  <line class="cls-1" x1="48.09" y1="147" x2="131.27" y2="147"/>
  <path class="cls-2" d="m52.57,32.19s2.5,57.93,29.74,60.45c0,0-21.58,15.48-29.74,54.36"/>
  <path class="cls-2" d="m126.39,32.19s-2.5,57.93-29.74,60.45c0,0,21.58,15.48,29.74,54.36"/>
  <polygon class="cls-3" points="89.48 89.6 102.56 77.72 76.31 77.72 89.48 89.6"/>
  <path class="cls-3" d="m89.3,104.92c-2.6,1.06-6.09,2.88-9.41,6.08-7.92,7.62-9.06,17.43-9.29,20.51,12.56.06,25.12.12,37.68.18-.23-3.05-1.34-12.69-9.11-20.33-3.5-3.44-7.21-5.36-9.87-6.43Z"/>
</svg>